<svg xmlns="http://www.w3.org/2000/svg" viewBox="0 0 24.3 23.07"><defs><style>.cls-1{fill:#f9b916;}.cls-1,.cls-3,.cls-4{fill-rule:evenodd;}.cls-2{fill:#4d443c;}.cls-3{fill:#ffe9d7;}.cls-4{fill:#42adc6;}.cls-5{fill:#fff;}</style></defs><title>28_1</title><g id="Layer_2" data-name="Layer 2"><g id="Layer_1-2" data-name="Layer 1"><polygon class="cls-1" points="12.43 0.29 15.46 8.27 24.01 8.88 17.52 14.28 19.59 22.79 12.55 18.15 5.28 22.79 7.42 14.52 0.85 8.88 9.21 8.41 12.43 0.29"/><path class="cls-2" d="M15.19,8.37,12.43,1.08,9.48,8.52a.29.29,0,0,1-.25.18l-7.65.43,6,5.18a.29.29,0,0,1,.09.29l-2,7.57,6.66-4.25a.28.28,0,0,1,.31,0l6.43,4.24-1.9-7.8a.29.29,0,0,1,.1-.29l5.95-4.95-7.85-.57a.29.29,0,0,1-.25-.18M12.71.2l3,7.79L24,8.6a.29.29,0,0,1,.15.52l-6.34,5.28,2,8.33a.28.28,0,0,1-.44.3l-6.87-4.53L5.43,23A.28.28,0,0,1,5,22.72l2.1-8.1L.67,9.1a.29.29,0,0,1,.17-.5L9,8.14l3.15-8a.29.29,0,0,1,.54,0Z"/><path class="cls-3" d="M3.66,18.81l0-6.27a2.67,2.67,0,0,0,1-.53C6.47,10.54,7,8.32,7.28,6.17c1-1,1.93-1,2.3.57a8.56,8.56,0,0,1-.53,4.73l3.31,0a3.19,3.19,0,0,1,1.67.25A1.71,1.71,0,0,1,15,13.68a15,15,0,0,1-1.55,3.91,2.9,2.9,0,0,1-3,2L6,19.54a1.78,1.78,0,0,1-1.64-.71Z"/><path class="cls-2" d="M4,12.75l0,5.78h.39a.28.28,0,0,1,.22.09,1.89,1.89,0,0,0,.62.5,2,2,0,0,0,.81.12l4.42,0a2.88,2.88,0,0,0,1.66-.4,3.33,3.33,0,0,0,1.08-1.4l.2-.4h0a12.66,12.66,0,0,0,1.32-3.4,2.27,2.27,0,0,0-.12-1,1.26,1.26,0,0,0-.64-.62,2.33,2.33,0,0,0-1.22-.22h-.33l-3.31,0-.09,0a.28.28,0,0,1-.18-.36,12.52,12.52,0,0,0,.59-2.3,6,6,0,0,0-.07-2.28,1.88,1.88,0,0,0-.41-.88.54.54,0,0,0-.24-.15.57.57,0,0,0-.29,0,2,2,0,0,0-.82.53,13.78,13.78,0,0,1-.74,3.14,6.6,6.6,0,0,1-1.95,2.78,3.18,3.18,0,0,1-.51.35,2.88,2.88,0,0,1-.38.17m-.61,6,0-6.26a.28.28,0,0,1,.21-.27,2.3,2.3,0,0,0,.47-.19,2.58,2.58,0,0,0,.42-.28A6,6,0,0,0,6.28,9.24,13.45,13.45,0,0,0,7,6.14.28.28,0,0,1,7.08,6h0a2.61,2.61,0,0,1,1.16-.74,1.13,1.13,0,0,1,.57,0,1.1,1.1,0,0,1,.5.29,2.41,2.41,0,0,1,.56,1.15,6.57,6.57,0,0,1,.08,2.49,12.32,12.32,0,0,1-.49,2l2.92,0h.32a2.77,2.77,0,0,1,1.47.28,1.8,1.8,0,0,1,.91.9,2.79,2.79,0,0,1,.17,1.28,12.77,12.77,0,0,1-1.38,3.62h0l-.2.4a3.86,3.86,0,0,1-1.28,1.63,3.4,3.4,0,0,1-2,.49L6,19.82a2.54,2.54,0,0,1-1-.16,2.22,2.22,0,0,1-.73-.55l-.57,0a.28.28,0,0,1-.28-.29Z"/><path class="cls-4" d="M1.11,12H3a.83.83,0,0,1,.83.83v5.68a.83.83,0,0,1-.83.83H1.11a.83.83,0,0,1-.83-.83V12.78A.83.83,0,0,1,1.11,12"/><path class="cls-2" d="M3,12.24H1.11a.54.54,0,0,0-.54.54v5.68a.54.54,0,0,0,.15.37h0a.54.54,0,0,0,.38.16H3a.54.54,0,0,0,.38-.16h0a.54.54,0,0,0,.16-.38V12.78a.54.54,0,0,0-.16-.38h0A.54.54,0,0,0,3,12.24m-1.89-.57H3a1.12,1.12,0,0,1,1.11,1.11v5.68a1.11,1.11,0,0,1-.33.79h0a1.11,1.11,0,0,1-.79.33H1.11a1.11,1.11,0,0,1-.79-.33l0,0A1.11,1.11,0,0,1,0,18.46V12.78a1.12,1.12,0,0,1,1.11-1.11Z"/><path class="cls-5" d="M15.91,16.53a.28.28,0,1,1,.55-.13L16.85,18a.29.29,0,1,1-.55.13Z"/><path class="cls-5" d="M12.17,5.13a.29.29,0,0,1,.53-.2l1.68,4.44,4.77.34a.29.29,0,1,1,0,.57l-4.95-.36a.29.29,0,0,1-.25-.18Z"/></g></g></svg>